<svg width="1065" height="500" viewBox="0 0 1065 500" fill="none" xmlns="http://www.w3.org/2000/svg">
<path d="M640.08 179.52C640.08 180.453 639.707 181.293 638.96 182.04C638.4 182.6 637.653 182.88 636.72 182.88H578.2C577.267 182.88 576.8 183.347 576.8 184.28V228.52C576.8 229.453 577.267 229.92 578.2 229.92H611.8C612.733 229.92 613.48 230.293 614.04 231.04C614.787 231.6 615.16 232.347 615.16 233.28V260.44C615.16 261.373 614.787 262.213 614.04 262.96C613.48 263.52 612.733 263.8 611.8 263.8H578.2C577.267 263.8 576.8 264.267 576.8 265.2V309.72C576.8 310.653 577.267 311.12 578.2 311.12H636.72C637.653 311.12 638.4 311.493 638.96 312.24C639.707 312.8 640.08 313.547 640.08 314.48V341.64C640.08 342.573 639.707 343.413 638.96 344.16C638.4 344.72 637.653 345 636.72 345H540.68C539.747 345 538.907 344.72 538.16 344.16C537.6 343.413 537.32 342.573 537.32 341.64V152.36C537.32 151.427 537.6 150.68 538.16 150.12C538.907 149.373 539.747 149 540.68 149H636.72C637.653 149 638.4 149.373 638.96 150.12C639.707 150.68 640.08 151.427 640.08 152.36V179.52ZM720.573 347.24C703.773 347.24 690.24 342.013 679.973 331.56C669.893 320.92 664.853 306.827 664.853 289.28V152.36C664.853 151.427 665.133 150.68 665.693 150.12C666.44 149.373 667.28 149 668.213 149H700.973C701.907 149 702.653 149.373 703.213 150.12C703.96 150.68 704.333 151.427 704.333 152.36V293.2C704.333 299.173 705.827 304.027 708.813 307.76C711.8 311.493 715.72 313.36 720.573 313.36C725.427 313.36 729.253 311.493 732.053 307.76C735.04 304.027 736.533 299.173 736.533 293.2V152.36C736.533 151.427 736.813 150.68 737.373 150.12C738.12 149.373 738.96 149 739.893 149H772.653C773.587 149 774.333 149.373 774.893 150.12C775.64 150.68 776.013 151.427 776.013 152.36V289.28C776.013 306.827 770.88 320.92 760.613 331.56C750.533 342.013 737.187 347.24 720.573 347.24ZM843.078 345C841.024 345 839.811 343.973 839.438 341.92L799.398 152.64L799.118 151.52C799.118 149.84 800.144 149 802.198 149H838.318C840.558 149 841.771 150.027 841.958 152.08L861.278 275.28C861.464 276.027 861.744 276.4 862.118 276.4C862.491 276.4 862.771 276.027 862.958 275.28L881.718 152.08C881.904 150.027 883.118 149 885.358 149H920.358C922.784 149 923.718 150.213 923.158 152.64L882.838 341.92C882.464 343.973 881.251 345 879.198 345H843.078ZM950.957 345C950.023 345 949.183 344.72 948.437 344.16C947.877 343.413 947.597 342.573 947.597 341.64V152.36C947.597 151.427 947.877 150.68 948.437 150.12C949.183 149.373 950.023 149 950.957 149H983.717C984.65 149 985.397 149.373 985.957 150.12C986.703 150.68 987.077 151.427 987.077 152.36V341.64C987.077 342.573 986.703 343.413 985.957 344.16C985.397 344.72 984.65 345 983.717 345H950.957Z" fill="#fafafa" fill-opacity="1"/>
<path d="M460.5 115C460.5 93.825 443.175 76.5 422 76.5H114C92.825 76.5 75.5 93.825 75.5 115V346C75.5 367.175 92.825 384.5 114 384.5H383.5L460.5 461.5V115Z" fill="#E0273D"/>
<path d="M332.35 133.425V155.242H310.533V133.425H223.267V155.242H201.45V133.425H179.633V329.775H201.45V307.958H223.267V329.775H310.533V307.958H332.35V329.775H354.167V133.425H332.35ZM223.267 286.142H201.45V264.325H223.267V286.142ZM223.267 242.508H201.45V220.692H223.267V242.508ZM223.267 198.875H201.45V177.058H223.267V198.875ZM332.35 286.142H310.533V264.325H332.35V286.142ZM332.35 242.508H310.533V220.692H332.35V242.508ZM332.35 198.875H310.533V177.058H332.35V198.875Z" fill="#FAFAFA" fill-opacity="1"/>
</svg>
