<svg width="100" height="100" viewBox="0 0 100 100" fill="none" xmlns="http://www.w3.org/2000/svg">
<path d="M10.0419 10.3792V89.6208C10.0419 95.6633 16.6799 99.3348 21.792 96.0458L83.8998 56.425C88.6304 53.442 88.6304 46.558 83.8998 43.4985L21.792 3.95422C16.6799 0.665232 10.0419 4.33666 10.0419 10.3792Z" fill="url(#paint0_linear_705_78)"/>
<path d="M41.2134 28.0335C29.0879 28.0335 19.2469 37.8745 19.2469 50C19.2469 62.1255 29.0879 71.9665 41.2134 71.9665C53.3389 71.9665 63.1799 62.1255 63.1799 50C63.1799 37.8745 53.3389 28.0335 41.2134 28.0335ZM30.2302 41.2134C30.2302 40.0052 31.2186 39.0167 32.4268 39.0167H43.4101C44.6182 39.0167 45.6067 40.0052 45.6067 41.2134C45.6067 42.4216 44.6182 43.41 43.4101 43.41H32.4268C31.2186 43.41 30.2302 42.4216 30.2302 41.2134ZM36.8201 54.3933C36.8201 55.6015 35.8316 56.59 34.6235 56.59H32.4268C31.2186 56.59 30.2302 55.6015 30.2302 54.3933C30.2302 53.1852 31.2186 52.1967 32.4268 52.1967H34.6235C35.8316 52.1967 36.8201 53.1852 36.8201 54.3933ZM32.4268 50C31.2186 50 30.2302 49.0115 30.2302 47.8034C30.2302 46.5952 31.2186 45.6067 32.4268 45.6067H43.4101C44.6182 45.6067 45.6067 46.5952 45.6067 47.8034C45.6067 49.0115 44.6182 50 43.4101 50H32.4268ZM54.3933 56.59H52.1967V58.7866C52.1967 59.9948 51.2082 60.9833 50 60.9833C48.7919 60.9833 47.8034 59.9948 47.8034 58.7866V56.59H45.6067C44.3986 56.59 43.4101 55.6015 43.4101 54.3933C43.4101 53.1852 44.3986 52.1967 45.6067 52.1967H47.8034V50C47.8034 48.7918 48.7919 47.8034 50 47.8034C51.2082 47.8034 52.1967 48.7918 52.1967 50V52.1967H54.3933C55.6015 52.1967 56.59 53.1852 56.59 54.3933C56.59 55.6015 55.6015 56.59 54.3933 56.59Z" fill="white" fill-opacity="0.87"/>
<defs>
<linearGradient id="paint0_linear_705_78" x1="8.36823" y1="51.4644" x2="87.4477" y2="50" gradientUnits="userSpaceOnUse">
<stop stop-color="#D31027"/>
<stop offset="1" stop-color="#EA384D"/>
</linearGradient>
</defs>
</svg>
